<?xml version="1.0" standalone="no"?><!DOCTYPE svg PUBLIC "-//W3C//DTD SVG 1.1//EN" "http://www.w3.org/Graphics/SVG/1.1/DTD/svg11.dtd"><svg t="1561172021836" class="icon" viewBox="0 0 1024 1024" version="1.1" xmlns="http://www.w3.org/2000/svg" p-id="1216" xmlns:xlink="http://www.w3.org/1999/xlink" width="200" height="200"><defs><style type="text/css"></style></defs><path d="M482.020582 66.97267a34.56 34.56 0 1 0 60.07206-34.189502 34.56 34.56 0 1 0-60.07206 34.189502Z" fill="#ffffff" p-id="1217"></path><path d="M468.530269 290.920868a49.92 49.92 0 1 0 86.770753-49.384836 49.92 49.92 0 1 0-86.770753 49.384836Z" fill="#ffffff" p-id="1218"></path><path d="M456.158733 514.234251a64 64 0 1 0 111.244555-63.313892 64 64 0 1 0-111.244555 63.313892Z" fill="#ffffff" p-id="1219"></path><path d="M444.420336 738.660079a78.08 78.08 0 1 0 135.718358-77.242948 78.08 78.08 0 1 0-135.718358 77.242948Z" fill="#ffffff" p-id="1220"></path><path d="M430.93468 962.60027a93.44 93.44 0 1 0 162.41705-92.438282 93.44 93.44 0 1 0-162.41705 92.438282Z" fill="#ffffff" p-id="1221"></path><path d="M658.231702 179.910404a42.24 42.24 0 1 0 73.421407-41.787169 42.24 42.24 0 1 0-73.421407 41.787169Z" fill="#ffffff" p-id="1222"></path><path d="M647.151567 403.830065a55.04 55.04 0 1 0 95.670317-54.449948 55.04 55.04 0 1 0-95.670317 54.449948Z" fill="#ffffff" p-id="1223"></path><path d="M636.06808 627.737062a67.84 67.84 0 1 0 117.919228-67.112726 67.84 67.84 0 1 0-117.919228 67.112726Z" fill="#ffffff" p-id="1224"></path><path d="M623.880154 852.281855a81.92 81.92 0 1 0 142.393031-81.041782 81.92 81.92 0 1 0-142.393031 81.041782Z" fill="#ffffff" p-id="1225"></path><path d="M292.013566 179.337228a42.24 42.24 0 1 0 73.421407-41.787169 42.24 42.24 0 1 0-73.421407 41.787169Z" fill="#ffffff" p-id="1226"></path><path d="M280.93343 403.256888a55.04 55.04 0 1 0 95.670318-54.449947 55.04 55.04 0 1 0-95.670318 54.449947Z" fill="#ffffff" p-id="1227"></path><path d="M269.849944 627.163886a67.84 67.84 0 1 0 117.919228-67.112726 67.84 67.84 0 1 0-117.919228 67.112726Z" fill="#ffffff" p-id="1228"></path><path d="M257.655687 851.710354a81.92 81.92 0 1 0 142.39303-81.041782 81.92 81.92 0 1 0-142.39303 81.041782Z" fill="#ffffff" p-id="1229"></path><path d="M838.39598 298.472525a47.36 47.36 0 1 0 82.320971-46.85228 47.36 47.36 0 1 0-82.320971 46.85228Z" fill="#ffffff" p-id="1230"></path><path d="M827.079907 521.167849a60.16 60.16 0 1 0 104.569882-59.515058 60.16 60.16 0 1 0-104.569882 59.515058Z" fill="#ffffff" p-id="1231"></path><path d="M815.762159 743.856842a72.96 72.96 0 1 0 126.818793-72.177837 72.96 72.96 0 1 0-126.818793 72.177837Z" fill="#ffffff" p-id="1232"></path><path d="M103.728485 298.594126a47.36 47.36 0 1 0 82.320971-46.85228 47.36 47.36 0 1 0-82.320971 46.85228Z" fill="#ffffff" p-id="1233"></path><path d="M92.412412 521.289451a60.16 60.16 0 1 0 104.569882-59.515059 60.16 60.16 0 1 0-104.569882 59.515059Z" fill="#ffffff" p-id="1234"></path><path d="M81.102671 743.983099a72.96 72.96 0 1 0 126.818793-72.177837 72.96 72.96 0 1 0-126.818793 72.177837Z" fill="#ffffff" p-id="1235"></path></svg>